# xmcd
#
# Track frame offsets:
#	150
#	14659
#	26805
#	45555
#	63002
#	79631
#	94987
#	102303
#	119818
#	134474
#	153142
#	163140
#
# Disc length: 2313 seconds
#
# Revision: 1
# Processed by: cddbd v1.5.2PL0 Copyright (c) Steve Scherf et al.
# Submitted via: EasyCDDAExtractor 16.0.6.1
#
DISCID=9d09070c
DTITLE=White Knuckles Trio - Got It Bad
DYEAR=2015
DGENRE=Blues
TTITLE0=Little By Little
TTITLE1=Got It Bad
TTITLE2=Rock My Soul (Bosom Of Abraham)
TTITLE3=I Smell Trouble
TTITLE4=Looking For My Baby
TTITLE5=Wonderin’
TTITLE6=Ridin’ Mellow
TTITLE7=God Don’t Like It
TTITLE8=By The Water
TTITLE9=This Train
TTITLE10=Lucille
TTITLE11=Boulevard Of Broken Dreams
EXTD=
EXTT0=
EXTT1=
EXTT2=
EXTT3=
EXTT4=
EXTT5=
EXTT6=
EXTT7=
EXTT8=
EXTT9=
EXTT10=
EXTT11=
PLAYORDER=
